<?xml version="1.0" encoding="UTF-8" standalone="no"?>
<svg
   version="1.0"
   width="2528.000000pt"
   height="1696.000000pt"
   viewBox="0 0 2528.000000 1696.000000"
   preserveAspectRatio="xMidYMid meet"
   id="svg7"
   sodipodi:docname="movafinal.svg"
   inkscape:export-filename="mova-final.png"
   inkscape:export-xdpi="96"
   inkscape:export-ydpi="96"
   inkscape:version="1.4.3 (0d15f75042, 2025-12-25)"
   xmlns:inkscape="http://www.inkscape.org/namespaces/inkscape"
   xmlns:sodipodi="http://sodipodi.sourceforge.net/DTD/sodipodi-0.dtd"
   xmlns="http://www.w3.org/2000/svg"
   xmlns:svg="http://www.w3.org/2000/svg">
  <defs
     id="defs7" />
  <sodipodi:namedview
     id="namedview7"
     pagecolor="#ffffff"
     bordercolor="#000000"
     borderopacity="0.25"
     inkscape:showpageshadow="2"
     inkscape:pageopacity="0.0"
     inkscape:pagecheckerboard="0"
     inkscape:deskcolor="#d1d1d1"
     inkscape:document-units="pt"
     inkscape:zoom="0.11480158"
     inkscape:cx="1742.1363"
     inkscape:cy="1071.4138"
     inkscape:window-width="2560"
     inkscape:window-height="1541"
     inkscape:window-x="0"
     inkscape:window-y="59"
     inkscape:window-maximized="1"
     inkscape:current-layer="svg7" />
  <metadata
     id="metadata1">
Created by potrace 1.16, written by Peter Selinger 2001-2019
</metadata>
  <g
     transform="translate(0.000000,1696.000000) scale(0.100000,-0.100000)"
     fill="#9B4DB8"
     stroke="none"
     id="g7">
    <path
       d="M5090 11094 c-193 -22 -341 -85 -565 -240 -143 -99 -208 -164 -331 -329 l-29 -40 35 23 c42 28 470 239 520 257 85 30 212 48 313 43 89 -4 111 -9 169 -37 124 -59 193 -151 239 -317 18 -66 21 -95 16 -194 -11 -237 -129 -605 -308 -961 -21 -44 -53 -113 -69 -154 -17 -42 -67 -151 -111 -243 -83 -171 -116 -243 -258 -560 -196 -440 -283 -726 -306 -1007 -6 -74 13 -194 41 -256 47 -103 167 -193 297 -221 92 -19 180 -5 287 48 83 40 107 59 192 146 90 91 234 289 308 423 12 22 86 148 164 280 79 132 172 292 208 356 83 146 387 634 526 844 145 219 243 344 375 479 149 153 214 183 288 133 100 -67 129 -204 94 -442 -8 -55 -26 -176 -39 -270 -14 -93 -41 -255 -61 -360 -55 -285 -64 -346 -71 -484 -7 -139 9 -264 46 -365 84 -224 458 -299 698 -140 30 19 108 88 174 152 174 169 298 324 515 647 160 238 373 538 436 613 28 34 92 94 141 132 69 55 103 75 158 91 167 51 288 -13 410 -217 56 -92 238 -487 268 -580 25 -76 188 -401 280 -559 51 -88 128 -202 169 -254 42 -51 81 -100 86 -108 27 -39 229 -211 314 -267 99 -65 267 -155 343 -182 127 -46 297 -88 428 -104 396 -52 807 5 1180 163 148 63 329 152 378 186 15 10 60 39 99 65 112 70 361 275 455 375 190 199 313 377 444 641 83 165 109 236 138 373 75 351 81 523 25 821 -51 271 -163 491 -322 631 -66 58 -260 158 -363 186 -95 27 -303 31 -424 10 -289 -51 -549 -212 -717 -442 -60 -83 -117 -178 -111 -185 2 -2 31 13 63 33 83 50 245 118 345 144 125 33 295 31 405 -5 218 -71 360 -224 425 -457 30 -111 37 -314 15 -454 -48 -306 -227 -667 -452 -910 -224 -244 -445 -387 -753 -489 -270 -90 -510 -87 -799 10 -137 46 -178 68 -298 158 -273 205 -375 377 -743 1251 -124 296 -200 440 -287 546 -153 188 -215 249 -313 313 -121 80 -215 122 -315 141 -100 19 -140 19 -238 0 -258 -49 -570 -272 -816 -580 -52 -66 -122 -151 -156 -190 -146 -166 -279 -335 -360 -457 -20 -32 -41 -56 -45 -53 -4 3 -1 35 7 72 100 468 140 929 98 1128 -34 164 -113 310 -227 425 -129 129 -234 170 -434 170 -217 0 -393 -76 -666 -287 -157 -121 -226 -190 -412 -408 -290 -341 -447 -552 -595 -796 -28 -48 -58 -92 -65 -98 -8 -7 8 56 36 141 96 300 160 513 178 597 10 47 24 109 30 136 28 130 48 345 46 480 -3 124 -7 152 -35 242 -70 228 -109 301 -216 407 -77 75 -190 137 -305 165 -85 21 -224 33 -290 25z"
       id="path3" />
    <path
       d="M12697 10419 c-349 -45 -733 -244 -1017 -528 -132 -131 -205 -230 -292 -391 -118 -221 -191 -478 -203 -709 -4 -85 24 -278 55 -381 40 -133 134 -258 276 -366 90 -68 110 -82 101 -67 -10 15 -26 167 -33 303 -7 153 16 382 51 503 65 226 129 366 275 602 65 106 102 179 127 250 56 160 82 214 146 310 110 161 289 317 482 419 75 40 124 70 105 65 -3 -1 -36 -5 -73 -10z"
       id="path4" />
    <g
       id="g8"
       transform="matrix(1,0,0,0.88274404,0,801.96974)">
      <g
         id="g9"
         transform="matrix(1,0,0,1.0881053,0,-604.0258)">
        <g
           id="g10">
          <path
             d="m 18979,12159 c -446,-348 -936,-820 -1284,-1239 -71,-85 -161,-193 -200,-240 -144,-172 -291,-368 -468,-625 -65,-93 -140,-201 -166,-240 -84,-121 -253,-392 -371,-595 -197,-338 -302,-514 -327,-548 -32,-43 -46,-32 -67,56 -79,325 -297,885 -413,1059 -78,117 -223,252 -317,294 -165,73 -356,7 -590,-203 -127,-115 -346,-354 -346,-380 0,-4 40,-34 88,-67 178,-122 310,-293 434,-560 22,-47 50,-108 63,-136 39,-83 84,-201 145,-375 32,-91 68,-190 80,-220 12,-30 31,-84 42,-120 11,-36 35,-101 53,-145 18,-44 63,-172 100,-285 81,-246 145,-412 193,-500 39,-71 157,-197 210,-224 50,-26 159,-34 233,-19 74,15 235,88 330,150 103,67 250,238 288,335 5,12 22,52 39,88 16,36 39,85 50,110 11,25 29,65 40,90 73,163 168,384 187,435 13,33 49,116 80,185 31,69 67,150 79,180 104,252 533,1087 685,1330 22,36 70,117 107,180 102,174 209,344 283,450 37,52 98,142 136,200 303,462 800.206,1053.722 1210,1443 770.25,731.687 452.982,442.727 740.88,690.319 539.554,352.758 -311.96,249.451 -1346.88,-554.319 z"
             id="path1"
             transform="matrix(0.99999998,0,0,0.91902874,0,555.11732)"
             sodipodi:nodetypes="ccccccccsccsccccssscccscccsccscccccscc" />
          <path
             d="m 20326.832,10500.512 c -47.508,-114.668 -157.607,-266.398 -242.067,-332.418 -145.543,-112.351 -210.395,-132.041 -454.725,-134.357 -334.069,-4.633 -518.071,-34.7473 -639.482,-105.4024 -115.378,-66.0195 -218.69,-176.0521 -297.871,-315.0434 -48.263,-85.7091 -110.854,-245.5479 -110.854,-284.9279 0,-17.3755 49.771,-18.5324 567.841,-17.3755 311.446,1.1594 601.023,5.7922 642.498,11.5832 107.837,13.8997 212.657,68.3362 298.626,156.3643 60.328,61.387 144.034,195.7442 179.477,287.2456 36.95,96.1342 73.902,253.6561 82.951,357.9001 10.558,113.509 10.558,410.02 0.754,419.285 -3.771,3.475 -15.836,-16.214 -27.148,-42.854 z"
             id="path2"
             style="fill:#9b4db8;fill-opacity:1;stroke-width:0.934581" />
          <path
             d="m 20578.857,9013.2567 c -45.246,-90.505 -219.445,-250.0551 -341.609,-311.6359 -141.772,-72.7772 -199.838,-76.5095 -1200.535,-76.5095 -815.188,0 -836.303,0 -859.68,-17.7277 -18.099,-13.9956 -40.722,-59.7148 -104.067,-212.7336 -43.738,-106.3667 -88.985,-222.064 -99.542,-256.5865 -18.852,-61.5807 -18.852,-63.4468 -4.525,-72.7773 10.558,-6.5313 340.102,-9.3304 1045.944,-7.4642 l 1031.616,3.732 69.378,24.2591 c 199.084,72.7773 334.068,203.4032 414.757,404.0073 46.755,114.764 77.673,303.2385 77.673,468.3869 0,83.9738 -8.295,98.9024 -29.41,55.0494 z"
             id="path6"
             style="fill:#9b4db8;fill-opacity:1;stroke-width:0.838815" />
          <path
             d="m 20571.316,7999.9733 c -9.049,-19.5938 -46,-69.9781 -82.197,-111.9649 -53.542,-61.5809 -82.198,-85.84 -156.1,-131.5591 -186.264,-114.764 -317.478,-132.4918 -971.287,-127.8266 -233.019,0.933 -677.187,0.933 -987.878,0 l -563.317,-1.8662 -48.263,-123.1614 c -67.869,-174.4789 -100.295,-231.3944 -194.559,-345.2255 l -83.705,-98.9024 48.263,-3.7322 c 26.394,-0.9331 589.71,-2.7991 1251.06,-1.8661 1327.225,0 1244.274,-3.7322 1395.094,58.7816 98.034,41.0539 140.264,68.112 196.822,125.0275 131.214,134.3582 222.461,363.8865 225.477,567.2896 2.263,141.8224 0,232.3274 -6.033,232.3274 -3.77,0 -13.574,-16.7947 -23.377,-37.3217 z"
             id="path7"
             style="fill:#9b4db8;fill-opacity:1;stroke-width:0.838815" />
        </g>
      </g>
    </g>
  </g>
</svg>
